<svg xmlns="http://www.w3.org/2000/svg" viewBox="0 0 24 24" fill="none"><path d="M5.48 18.49v-2.92c0-.97.76-1.84 1.84-1.84.97 0 1.84.76 1.84 1.84v2.81c0 1.95-1.62 3.57-3.57 3.57-1.95 0-3.57-1.63-3.57-3.57v-6.16C1.91 6.6 6.35 2.05 11.97 2.05c5.62 0 10.05 4.55 10.05 10.06v6.16c0 1.95-1.62 3.57-3.57 3.57-1.95 0-3.57-1.62-3.57-3.57v-2.81c0-.97.76-1.84 1.84-1.84.97 0 1.84.76 1.84 1.84v3.03" stroke="currentColor" stroke-width="1.5" stroke-linecap="round" stroke-linejoin="round"></path><path d="M15.53 9.12h-.81a.61.61 0 0 0-.53.32l-.75 1.5c-.11.22-.42.22-.53 0l-1.84-3.67c-.11-.21-.41-.22-.52-.01l-.84 1.55c-.1.19-.3.31-.52.31h-.73" stroke="currentColor" stroke-width="1.5" stroke-linecap="round" stroke-linejoin="round"></path></svg>