<svg xmlns="http://www.w3.org/2000/svg"  viewBox="0 0 24 24" fill="none"><path d="M13.98 4.47 12 2M19.09 7.8c1.11 1.48 1.8 3.31 1.8 5.31A8.89 8.89 0 0 1 12 22a8.89 8.89 0 0 1-8.89-8.89A8.89 8.89 0 0 1 12 4.22c.68 0 1.34.09 1.98.24" stroke="currentColor" stroke-width="1.5" stroke-linecap="round" stroke-linejoin="round"></path><path d="M9.54 15.92v-5.34l-1.5 1.67M14 10.58c1.1 0 2 .9 2 2v1.35c0 1.1-.9 2-2 2s-2-.9-2-2v-1.35a2 2 0 0 1 2-2Z" stroke="currentColor" stroke-width="1.5" stroke-linecap="round" stroke-linejoin="round"></path></svg>