<?xml version="1.0" standalone="no"?>
<!DOCTYPE svg PUBLIC "-//W3C//DTD SVG 20010904//EN" "http://www.w3.org/TR/2001/REC-SVG-20010904/DTD/svg10.dtd">
<!-- Created using Krita: https://krita.org -->
<svg xmlns="http://www.w3.org/2000/svg" 
    xmlns:xlink="http://www.w3.org/1999/xlink"
    xmlns:krita="http://krita.org/namespaces/svg/krita"
    xmlns:sodipodi="http://sodipodi.sourceforge.net/DTD/sodipodi-0.dtd"
    width="2.88pt"
    height="2.88pt"
    viewBox="0 0 2.88 2.88">
<defs/>
<path id="shape0" transform="matrix(0.12 0 0 0.12 0.36 0.36)" fill="none" stroke="#000000" stroke-width="2" stroke-linecap="round" stroke-linejoin="round" d="M5 0L2 0C1.46977 0 0.960715 0.210858 0.585786 0.585786C0.210858 0.960715 0 1.46977 0 2L0 5M18 5L18 2C18 1.46977 17.7891 0.960715 17.4142 0.585786C17.0393 0.210858 16.5302 0 16 0L13 0M13 18L16 18C16.5302 18 17.0393 17.7891 17.4142 17.4142C17.7891 17.0393 18 16.5302 18 16L18 13M0 13L0 16C0 16.5302 0.210858 17.0393 0.585786 17.4142C0.960715 17.7891 1.46977 18 2 18L5 18" sodipodi:nodetypes="cccccccccccccccccccc"/><path id="shape1" transform="translate(0.359999974910176, 1.04249992734405)" fill="none" stroke="#231e1e" stroke-width="0.24" stroke-linecap="square" stroke-linejoin="miter" stroke-miterlimit="2" d="M0 0L5.55112e-17 0.825008" sodipodi:nodetypes="cc"/><path id="shape2" transform="translate(2.53874982306447, 0.929999935184621)" fill="none" stroke="#231e1e" stroke-width="0.24" stroke-linecap="square" stroke-linejoin="miter" stroke-miterlimit="2" d="M0 0L0 1.13266" sodipodi:nodetypes="cc"/><path id="shape3" transform="translate(0.794555942533745, 2.52749982384853)" fill="none" stroke="#231e1e" stroke-width="0.24" stroke-linecap="square" stroke-linejoin="miter" stroke-miterlimit="2" d="M1.28294 0L0 0" sodipodi:nodetypes="cc"/><path id="shape4" transform="translate(0.817499943025191, 0.367499974387471)" fill="none" stroke="#231e1e" stroke-width="0.24" stroke-linecap="square" stroke-linejoin="miter" stroke-miterlimit="2" d="M0 0L1.21514 0" sodipodi:nodetypes="cc"/><path id="shape5" transform="translate(0.635624955700781, 0.359999974910177)" fill="none" stroke="#000000" stroke-width="0.24" stroke-linecap="square" stroke-linejoin="miter" stroke-miterlimit="2" d="M0 0L1.63126 0" sodipodi:nodetypes="cc"/><path id="shape6" transform="translate(2.51437482476327, 0.618749956876866)" fill="none" stroke="#000000" stroke-width="0.24" stroke-linecap="square" stroke-linejoin="miter" stroke-miterlimit="2" d="M0 0L0 1.64813" sodipodi:nodetypes="cc"/><path id="shape7" transform="translate(0.618749956876867, 2.51999982437124)" fill="none" stroke="#000000" stroke-width="0.24" stroke-linecap="square" stroke-linejoin="miter" stroke-miterlimit="2" d="M0 0L1.68188 0" sodipodi:nodetypes="cc"/><path id="shape8" transform="translate(0.624374956484838, 2.52562482397921)" fill="none" stroke="#000000" stroke-width="0.24" stroke-linecap="square" stroke-linejoin="miter" stroke-miterlimit="2" d="M0 4.44089e-16L1.65946 0" sodipodi:nodetypes="cc"/><path id="shape9" transform="translate(0.359999974910176, 0.635586560246259)" fill="none" stroke="#000000" stroke-width="0.24" stroke-linecap="square" stroke-linejoin="miter" stroke-miterlimit="2" d="M3.33067e-16 1.64816L0 0" sodipodi:nodetypes="cc"/>
</svg>
