<svg width="512" height="512" viewBox="0 0 512 512" fill="none" xmlns="http://www.w3.org/2000/svg">
<rect width="512" height="512" rx="256" fill="url(#paint0_linear)"/>
<path fill-rule="evenodd" clip-rule="evenodd" d="M256 494C319.122 494 379.658 468.925 424.291 424.291C468.925 379.658 494 319.122 494 256C494 192.878 468.925 132.342 424.291 87.7086C379.658 43.0749 319.122 18 256 18C192.878 18 132.342 43.0749 87.7086 87.7086C43.0749 132.342 18 192.878 18 256C18 319.122 43.0749 379.658 87.7086 424.291C132.342 468.925 192.878 494 256 494ZM242.761 171.748C238.281 168.759 233.073 167.042 227.693 166.781C222.314 166.519 216.964 167.723 212.215 170.264C207.466 172.805 203.496 176.588 200.728 181.208C197.961 185.829 196.499 191.114 196.5 196.5V315.5C196.499 320.886 197.961 326.171 200.728 330.792C203.496 335.412 207.466 339.195 212.215 341.736C216.964 344.277 222.314 345.481 227.693 345.219C233.073 344.958 238.281 343.241 242.761 340.252L332.011 280.752C336.086 278.035 339.427 274.354 341.737 270.037C344.048 265.719 345.257 260.897 345.257 256C345.257 251.103 344.048 246.281 341.737 241.963C339.427 237.646 336.086 233.965 332.011 231.248L242.761 171.748Z" fill="white"/>
<defs>
<linearGradient id="paint0_linear" x1="539" y1="-15" x2="-17" y2="674" gradientUnits="userSpaceOnUse">
<stop stop-color="#8B1CC3"/>
<stop offset="1" stop-color="white"/>
</linearGradient>
</defs>
</svg>
