<svg width="512" height="512" viewBox="0 0 512 512" fill="none" xmlns="http://www.w3.org/2000/svg">
<rect width="512" height="512" rx="256" fill="url(#paint0_linear)"/>
<path fill-rule="evenodd" clip-rule="evenodd" d="M256 419.2C299.283 419.2 340.794 402.006 371.4 371.4C402.006 340.794 419.2 299.283 419.2 256C419.2 212.717 402.006 171.206 371.4 140.6C340.794 109.994 299.283 92.8 256 92.8C212.717 92.8 171.206 109.994 140.6 140.6C109.994 171.206 92.8 212.717 92.8 256C92.8 299.283 109.994 340.794 140.6 371.4C171.206 402.006 212.717 419.2 256 419.2V419.2ZM246.922 198.227C243.85 196.177 240.279 195 236.59 194.821C232.901 194.642 229.232 195.467 225.976 197.21C222.72 198.952 219.997 201.546 218.099 204.714C216.202 207.883 215.199 211.507 215.2 215.2V296.8C215.199 300.493 216.202 304.117 218.099 307.286C219.997 310.454 222.72 313.048 225.976 314.79C229.232 316.533 232.901 317.358 236.59 317.179C240.279 317 243.85 315.823 246.922 313.773L308.122 272.973C310.916 271.11 313.207 268.586 314.791 265.625C316.376 262.664 317.205 259.358 317.205 256C317.205 252.642 316.376 249.336 314.791 246.375C313.207 243.414 310.916 240.89 308.122 239.027L246.922 198.227V198.227Z" fill="white"/>
<defs>
<linearGradient id="paint0_linear" x1="539" y1="-15" x2="-17" y2="674" gradientUnits="userSpaceOnUse">
<stop stop-color="#A8CBFF"/>
<stop offset="1" stop-color="#1F263F"/>
</linearGradient>
</defs>
</svg>
